<svg xmlns="http://www.w3.org/2000/svg" width="216" height="128" viewBox="0 0 216 128">
  <defs>
    <linearGradient id="glow" x1="0" x2="1" y1="0" y2="0">
      <stop offset="0" stop-color="#41ff7e"/>
      <stop offset="0.5" stop-color="#163d25"/>
      <stop offset="1" stop-color="#41ff7e"/>
    </linearGradient>
    <linearGradient id="door" x1="0" x2="0" y1="0" y2="1">
      <stop offset="0" stop-color="#28313a"/>
      <stop offset="1" stop-color="#10171d"/>
    </linearGradient>
    <filter id="shadow" x="-15%" y="-15%" width="130%" height="130%">
      <feDropShadow dx="0" dy="3" stdDeviation="2" flood-color="#000000" flood-opacity="0.75"/>
    </filter>
  </defs>
  <g filter="url(#shadow)">
    <path d="M22 20 H46 L56 8 H160 L170 20 H194 V104 H22 Z" fill="#122216" stroke="#63ff91" stroke-width="7" stroke-linejoin="round"/>
    <path d="M36 26 H180 V102 H36 Z" fill="#0a1014" stroke="#27343b" stroke-width="4"/>
    <rect x="54" y="40" width="108" height="48" fill="url(#door)" stroke="#505d66" stroke-width="3"/>
    <path d="M56 48 H160 M56 56 H160 M56 64 H160 M56 72 H160 M56 80 H160" stroke="#90949a" stroke-width="3" opacity="0.75"/>
    <rect x="72" y="10" width="72" height="23" fill="#0b1710" stroke="#74ff9d" stroke-width="4"/>
    <path d="M26 22 H46 L56 10 H70 V34 H30 Z" fill="url(#glow)" opacity="0.92"/>
    <path d="M146 10 H160 L170 22 H190 V34 H146 Z" fill="url(#glow)" opacity="0.92"/>
    <rect x="28" y="35" width="18" height="58" fill="#193922" stroke="#54d878" stroke-width="3"/>
    <rect x="170" y="35" width="18" height="58" fill="#193922" stroke="#54d878" stroke-width="3"/>
    <rect x="34" y="76" width="14" height="29" fill="#20242a" stroke="#7b8790" stroke-width="2"/>
    <rect x="168" y="76" width="14" height="29" fill="#20242a" stroke="#7b8790" stroke-width="2"/>
    <path d="M35 101 L48 80 M35 88 L43 77 M169 101 L182 80 M169 88 L177 77" stroke="#f0a72e" stroke-width="7"/>
    <path d="M35 101 L48 80 M35 88 L43 77 M169 101 L182 80 M169 88 L177 77" stroke="#05070a" stroke-width="3"/>
    <rect x="22" y="101" width="172" height="15" fill="#3d464d" stroke="#a6b5be" stroke-width="3"/>
    <rect x="52" y="101" width="112" height="15" fill="#d9912c"/>
    <path d="M55 116 L69 101 M82 116 L96 101 M109 116 L123 101 M136 116 L150 101" stroke="#05070a" stroke-width="8"/>
    <rect x="196" y="66" width="13" height="28" fill="#1b242c" stroke="#a6b5be" stroke-width="3"/>
    <circle cx="202.5" cy="80" r="4" fill="#ff3942" stroke="#ffadb2" stroke-width="2"/>
  </g>
</svg>
